<?xml version="1.0" encoding="UTF-8"?>
<svg width="2458px" height="443px" viewBox="0 0 2458 443" version="1.1" xmlns="http://www.w3.org/2000/svg" xmlns:xlink="http://www.w3.org/1999/xlink">
    <!-- Generator: Sketch 52.5 (67469) - http://www.bohemiancoding.com/sketch -->
    <title>logo</title>
    <desc>Created with Sketch.</desc>
    <g id="Page-1" stroke="none" stroke-width="1" fill="none" fill-rule="evenodd">
        <g id="logo">
            <path d="M443,253.8 L443,186.1 C443,184.6 441.8,183.5 440.4,183.5 L372.7,183.5 C371.2,183.5 370.1,184.7 370.1,186.1 L370.1,253.8 C370.1,255.3 371.3,256.4 372.7,256.4 L440.4,256.4 C441.8,256.5 443,255.3 443,253.8 Z" id="Path" fill="#DFDFDF"></path>
            <path d="M443,70.8 L443,3.1 C443,1.6 441.8,0.5 440.4,0.5 L372.7,0.5 C371.2,0.5 370.1,1.7 370.1,3.1 L370.1,70.8 C370.1,72.3 371.3,73.4 372.7,73.4 L440.4,73.4 C441.8,73.4 443,72.3 443,70.8 Z" id="Path" fill="#FAAE42"></path>
            <path d="M443,346.2 L443,278.5 C443,277 441.8,275.9 440.4,275.9 L372.7,275.9 C371.2,275.9 370.1,277.1 370.1,278.5 L370.1,346.2 C370.1,347.7 371.3,348.8 372.7,348.8 L440.4,348.8 C441.8,348.8 443,347.6 443,346.2 Z M73.6,253.8 L73.6,186.1 C73.6,184.6 72.4,183.5 71,183.5 L3.3,183.5 C1.8,183.5 0.7,184.7 0.7,186.1 L0.7,253.8 C0.7,255.3 1.9,256.4 3.3,256.4 L71,256.4 C72.4,256.5 73.6,255.3 73.6,253.8 Z M73.6,346.2 L73.6,278.5 C73.6,277 72.4,275.9 71,275.9 L3.3,275.9 C1.8,275.9 0.7,277.1 0.7,278.5 L0.7,346.2 C0.7,347.7 1.9,348.8 3.3,348.8 L71,348.8 C72.4,348.8 73.6,347.6 73.6,346.2 Z" id="Shape" fill="#E2E2E2" fill-rule="nonzero"></path>
            <path d="M73.6,70.8 L73.6,3.1 C73.6,1.6 72.4,0.5 71,0.5 L3.3,0.5 C1.8,0.5 0.7,1.7 0.7,3.1 L0.7,70.8 C0.7,72.3 1.9,73.4 3.3,73.4 L71,73.4 C72.4,73.4 73.6,72.3 73.6,70.8 Z" id="Path" fill="#F0F0F0" opacity="0.6"></path>
            <path d="M73.6,163.2 L73.6,95.5 C73.6,94 72.4,92.9 71,92.9 L3.3,92.9 C1.8,92.9 0.7,94.1 0.7,95.5 L0.7,163.2 C0.7,164.7 1.9,165.8 3.3,165.8 L71,165.8 C72.4,165.8 73.6,164.6 73.6,163.2 Z M443,439.6 L443,371.9 C443,370.4 441.8,369.3 440.4,369.3 L372.7,369.3 C371.2,369.3 370.1,370.5 370.1,371.9 L370.1,439.6 C370.1,441.1 371.3,442.2 372.7,442.2 L440.4,442.2 C441.8,442.2 443,441 443,439.6 Z M350.7,439.6 L350.7,371.9 C350.7,370.4 349.5,369.3 348.1,369.3 L280.4,369.3 C278.9,369.3 277.8,370.5 277.8,371.9 L277.8,439.6 C277.8,441.1 279,442.2 280.4,442.2 L348,442.2 C349.5,442.2 350.7,441 350.7,439.6 Z M258.3,439.6 L258.3,371.9 C258.3,370.4 257.1,369.3 255.7,369.3 L188,369.3 C186.5,369.3 185.4,370.5 185.4,371.9 L185.4,439.6 C185.4,441.1 186.6,442.2 188,442.2 L255.7,442.2 C257.1,442.2 258.3,441 258.3,439.6 Z M73.6,439.6 L73.6,371.9 C73.6,370.4 72.4,369.3 71,369.3 L3.3,369.3 C1.8,369.3 0.7,370.5 0.7,371.9 L0.7,439.6 C0.7,441.1 1.9,442.2 3.3,442.2 L71,442.2 C72.4,442.2 73.6,441 73.6,439.6 Z M165.9,439.6 L165.9,371.9 C165.9,370.4 164.7,369.3 163.3,369.3 L95.6,369.3 C94.1,369.3 93,370.5 93,371.9 L93,439.6 C93,441.1 94.2,442.2 95.6,442.2 L163.3,442.2 C164.8,442.2 165.9,441 165.9,439.6 Z" id="Shape" fill="#FFFFFF" fill-rule="nonzero"></path>
            <path d="M258.3,70.8 L258.3,3.1 C258.3,1.6 257.1,0.5 255.7,0.5 L188,0.5 C186.5,0.5 185.4,1.7 185.4,3.1 L185.4,70.8 C185.4,72.3 186.6,73.4 188,73.4 L255.7,73.4 C257.1,73.4 258.3,72.3 258.3,70.8 Z" id="Path" fill="#FFFFFF" opacity="0.2"></path>
            <path d="M165.9,70.8 L165.9,3.1 C165.9,1.6 164.7,0.5 163.3,0.5 L95.6,0.5 C94.1,0.5 93,1.7 93,3.1 L93,70.8 C93,72.3 94.2,73.4 95.6,73.4 L163.3,73.4 C164.8,73.4 165.9,72.3 165.9,70.8 Z" id="Path" fill="#F7F7F7" opacity="0.4"></path>
            <path d="M2075.9,423.3 L2075.9,221.1 C2075.9,219.6 2074.7,218.5 2073.3,218.5 L1856.3,218.5 C1854.8,218.5 1853.7,219.7 1853.7,221.1 L1853.7,423.3 C1853.7,424.8 1854.9,425.9 1856.3,425.9 L2073.3,425.9 C2074.7,425.9 2075.9,424.8 2075.9,423.3 Z" id="Path"></path>
            <path d="M673.7,285.1 L775.4,183.4 L867.8,183.4 L738.4,312.8 L867.8,442.2 L775.4,442.2 L673.7,340.5 L599.8,340.5 L599.8,442.2 L525.9,442.2 L525.9,183.4 L599.8,183.4 L599.8,285.1 L673.7,285.1 Z M895.5,184.1 L1163.5,183.4 C1206.6,183.4 1228.2,201.9 1228.2,238.9 L1228.2,442.2 L960.2,442.2 C917.1,442.2 895.5,423.7 895.5,386.7 L895.5,321.8 C895.5,285 917.1,266.5 960.2,266.5 L1154.5,266.5 L1154.3,248 C1154.3,241.8 1151.3,238.8 1145.2,238.8 L895.5,238.8 L895.5,184.1 Z M978.5,321.8 C972.5,321.8 969.4,325 969.4,331.4 L969.4,377.4 C969.4,383.6 972.5,386.6 978.6,386.6 L1154.4,386.6 L1154.2,321.9 L978.5,321.8 Z M1265.2,184.1 L1533.2,183.4 C1576.3,183.4 1597.9,201.9 1597.9,238.9 L1597.9,442.2 L1329.9,442.2 C1286.8,442.2 1265.2,423.7 1265.2,386.7 L1265.2,321.8 C1265.2,285 1286.8,266.5 1329.9,266.5 L1524.2,266.5 L1524,248 C1524,241.8 1521,238.8 1514.9,238.8 L1265.2,238.8 L1265.2,184.1 Z M1348.2,321.8 C1342.2,321.8 1339.1,325 1339.1,331.4 L1339.1,377.4 C1339.1,383.6 1342.2,386.6 1348.3,386.6 L1524.1,386.6 L1524,322 L1348.2,321.8 Z" id="Shape" fill="#FAAE42" fill-rule="nonzero"></path>
            <path d="M1754.8,183.4 L1754.8,442.2 L1680.9,442.2 L1680.9,183.4 L1754.8,183.4 Z M1856.5,442.2 C1813.4,442.2 1791.8,423.7 1791.8,386.7 L1791.8,238.8 C1791.8,201.8 1813.4,183.3 1856.5,183.3 L2060,183.3 C2103.1,183.3 2124.7,201.8 2124.8,237.6 L2124.6,385.5 C2124.5,423.6 2103,442.1 2060,442.1 L1856.5,442.1 L1856.5,442.2 Z M1874.8,239 C1868.8,239 1865.7,242.1 1865.7,248.2 L1865.7,377.4 C1865.7,383.6 1868.7,386.6 1874.8,386.6 L2041.5,386.4 C2047.7,386.4 2050.7,383.3 2050.7,377.2 L2050.7,248.1 C2050.7,241.9 2047.6,238.9 2041.5,238.9 L1874.8,239 Z M2457.3,238.8 L2346.6,238.8 L2346.6,442.1 L2272.5,442.1 L2272.3,238.8 L2161.6,239 L2161.6,182.8 L2457.3,183.2 L2457.3,238.8 Z" id="Shape" fill="#FFFFFF" fill-rule="nonzero"></path>
        </g>
    </g>
</svg>